<mxfile host="app.diagrams.net" agent="Mozilla/5.0 (Windows NT 10.0; Win64; x64) AppleWebKit/537.36 (KHTML, like Gecko) Chrome/131.0.0.0 Safari/537.36" version="24.8.6">
  <diagram name="Halaman-1" id="E4lhuFIVdeeSDyWObInd">
    <mxGraphModel dx="1909" dy="2182" grid="1" gridSize="10" guides="1" tooltips="1" connect="1" arrows="1" fold="1" page="1" pageScale="1" pageWidth="827" pageHeight="1169" math="0" shadow="0">
      <root>
        <mxCell id="0" />
        <mxCell id="1" parent="0" />
        <mxCell id="lmzhbs31GOhwWtrreFL7-6" value="" style="edgeStyle=orthogonalEdgeStyle;rounded=0;orthogonalLoop=1;jettySize=auto;html=1;" edge="1" parent="1" source="lmzhbs31GOhwWtrreFL7-4" target="lmzhbs31GOhwWtrreFL7-5">
          <mxGeometry relative="1" as="geometry" />
        </mxCell>
        <mxCell id="lmzhbs31GOhwWtrreFL7-7" value="Data Surat keluar" style="edgeLabel;html=1;align=center;verticalAlign=middle;resizable=0;points=[];" vertex="1" connectable="0" parent="lmzhbs31GOhwWtrreFL7-6">
          <mxGeometry x="-0.325" y="3" relative="1" as="geometry">
            <mxPoint x="8" y="-9" as="offset" />
          </mxGeometry>
        </mxCell>
        <mxCell id="lmzhbs31GOhwWtrreFL7-44" style="edgeStyle=orthogonalEdgeStyle;rounded=0;orthogonalLoop=1;jettySize=auto;html=1;entryX=0;entryY=0.5;entryDx=0;entryDy=0;" edge="1" parent="1" target="lmzhbs31GOhwWtrreFL7-32">
          <mxGeometry relative="1" as="geometry">
            <mxPoint x="689.9976190476189" y="290.0000000000002" as="sourcePoint" />
            <mxPoint x="740" y="15" as="targetPoint" />
            <Array as="points">
              <mxPoint x="710" y="290" />
              <mxPoint x="710" y="15" />
            </Array>
          </mxGeometry>
        </mxCell>
        <mxCell id="lmzhbs31GOhwWtrreFL7-45" value="Data_Surat&lt;div&gt;Masuk&lt;/div&gt;" style="edgeLabel;html=1;align=center;verticalAlign=middle;resizable=0;points=[];" vertex="1" connectable="0" parent="lmzhbs31GOhwWtrreFL7-44">
          <mxGeometry x="0.8159" relative="1" as="geometry">
            <mxPoint x="2" y="22" as="offset" />
          </mxGeometry>
        </mxCell>
        <mxCell id="lmzhbs31GOhwWtrreFL7-70" style="edgeStyle=orthogonalEdgeStyle;rounded=0;orthogonalLoop=1;jettySize=auto;html=1;" edge="1" parent="1" source="lmzhbs31GOhwWtrreFL7-4" target="lmzhbs31GOhwWtrreFL7-60">
          <mxGeometry relative="1" as="geometry">
            <Array as="points">
              <mxPoint x="660" y="-260" />
            </Array>
          </mxGeometry>
        </mxCell>
        <mxCell id="lmzhbs31GOhwWtrreFL7-73" value="Data Hasil Disposisi" style="edgeLabel;html=1;align=center;verticalAlign=middle;resizable=0;points=[];" vertex="1" connectable="0" parent="lmzhbs31GOhwWtrreFL7-70">
          <mxGeometry x="0.8189" relative="1" as="geometry">
            <mxPoint x="-6" y="-8" as="offset" />
          </mxGeometry>
        </mxCell>
        <mxCell id="lmzhbs31GOhwWtrreFL7-96" style="edgeStyle=orthogonalEdgeStyle;rounded=0;orthogonalLoop=1;jettySize=auto;html=1;entryX=1;entryY=0.5;entryDx=0;entryDy=0;" edge="1" parent="1" source="lmzhbs31GOhwWtrreFL7-4" target="lmzhbs31GOhwWtrreFL7-89">
          <mxGeometry relative="1" as="geometry" />
        </mxCell>
        <mxCell id="lmzhbs31GOhwWtrreFL7-97" value="Laporan Lengkap" style="edgeLabel;html=1;align=center;verticalAlign=middle;resizable=0;points=[];" vertex="1" connectable="0" parent="lmzhbs31GOhwWtrreFL7-96">
          <mxGeometry x="-0.1045" y="-2" relative="1" as="geometry">
            <mxPoint y="-8" as="offset" />
          </mxGeometry>
        </mxCell>
        <mxCell id="lmzhbs31GOhwWtrreFL7-4" value="Administrasi&lt;div&gt;Surat Tata Usaha&lt;/div&gt;" style="whiteSpace=wrap;html=1;aspect=fixed;" vertex="1" parent="1">
          <mxGeometry x="640" y="290" width="84" height="80" as="geometry" />
        </mxCell>
        <mxCell id="lmzhbs31GOhwWtrreFL7-9" value="" style="edgeStyle=orthogonalEdgeStyle;rounded=0;orthogonalLoop=1;jettySize=auto;html=1;" edge="1" parent="1" source="lmzhbs31GOhwWtrreFL7-5" target="lmzhbs31GOhwWtrreFL7-10">
          <mxGeometry relative="1" as="geometry">
            <mxPoint x="1060" y="350" as="targetPoint" />
            <Array as="points">
              <mxPoint x="1080" y="330" />
              <mxPoint x="1080" y="330" />
            </Array>
          </mxGeometry>
        </mxCell>
        <mxCell id="lmzhbs31GOhwWtrreFL7-17" value="Tbl_Data Surat&amp;nbsp;&lt;div&gt;keluar&lt;/div&gt;" style="edgeLabel;html=1;align=center;verticalAlign=middle;resizable=0;points=[];" vertex="1" connectable="0" parent="lmzhbs31GOhwWtrreFL7-9">
          <mxGeometry x="0.1575" y="-1" relative="1" as="geometry">
            <mxPoint x="-16" y="-17" as="offset" />
          </mxGeometry>
        </mxCell>
        <mxCell id="lmzhbs31GOhwWtrreFL7-12" value="" style="edgeStyle=orthogonalEdgeStyle;rounded=0;orthogonalLoop=1;jettySize=auto;html=1;entryX=0.5;entryY=0;entryDx=0;entryDy=0;" edge="1" parent="1" source="lmzhbs31GOhwWtrreFL7-5" target="lmzhbs31GOhwWtrreFL7-16">
          <mxGeometry relative="1" as="geometry">
            <mxPoint x="967.5263157894738" y="500" as="targetPoint" />
            <Array as="points">
              <mxPoint x="975" y="480" />
              <mxPoint x="975" y="480" />
            </Array>
          </mxGeometry>
        </mxCell>
        <mxCell id="lmzhbs31GOhwWtrreFL7-30" style="edgeStyle=orthogonalEdgeStyle;rounded=0;orthogonalLoop=1;jettySize=auto;html=1;entryX=0.5;entryY=1;entryDx=0;entryDy=0;" edge="1" parent="1" target="lmzhbs31GOhwWtrreFL7-29">
          <mxGeometry relative="1" as="geometry">
            <mxPoint x="964.76" y="150" as="targetPoint" />
            <mxPoint x="964.76" y="270" as="sourcePoint" />
          </mxGeometry>
        </mxCell>
        <mxCell id="lmzhbs31GOhwWtrreFL7-31" value="Surat Keluar" style="edgeLabel;html=1;align=center;verticalAlign=middle;resizable=0;points=[];" vertex="1" connectable="0" parent="lmzhbs31GOhwWtrreFL7-30">
          <mxGeometry x="-0.123" y="-2" relative="1" as="geometry">
            <mxPoint x="33" y="-13" as="offset" />
          </mxGeometry>
        </mxCell>
        <mxCell id="lmzhbs31GOhwWtrreFL7-5" value="2&lt;div&gt;&lt;br&gt;&lt;div&gt;Pendataan&amp;nbsp;&lt;/div&gt;&lt;div&gt;Surat&lt;/div&gt;&lt;div&gt;Keluar&lt;/div&gt;&lt;/div&gt;" style="ellipse;whiteSpace=wrap;html=1;" vertex="1" parent="1">
          <mxGeometry x="920" y="270" width="90" height="120" as="geometry" />
        </mxCell>
        <mxCell id="lmzhbs31GOhwWtrreFL7-23" style="edgeStyle=orthogonalEdgeStyle;rounded=0;orthogonalLoop=1;jettySize=auto;html=1;" edge="1" parent="1" source="lmzhbs31GOhwWtrreFL7-10">
          <mxGeometry relative="1" as="geometry">
            <mxPoint x="1360" y="470" as="targetPoint" />
            <Array as="points">
              <mxPoint x="1360" y="330" />
              <mxPoint x="1360" y="465" />
            </Array>
          </mxGeometry>
        </mxCell>
        <mxCell id="lmzhbs31GOhwWtrreFL7-24" value="Tbl_Data Surat&lt;div&gt;Keluar&lt;/div&gt;" style="edgeLabel;html=1;align=center;verticalAlign=middle;resizable=0;points=[];" vertex="1" connectable="0" parent="lmzhbs31GOhwWtrreFL7-23">
          <mxGeometry x="-0.4455" y="-1" relative="1" as="geometry">
            <mxPoint x="-15" y="-18" as="offset" />
          </mxGeometry>
        </mxCell>
        <mxCell id="lmzhbs31GOhwWtrreFL7-10" value="Tbl_Data Surat Keluar" style="shape=partialRectangle;whiteSpace=wrap;html=1;left=0;right=0;fillColor=none;" vertex="1" parent="1">
          <mxGeometry x="1140" y="300" width="120" height="60" as="geometry" />
        </mxCell>
        <mxCell id="lmzhbs31GOhwWtrreFL7-16" value="Kepala Bagian" style="whiteSpace=wrap;html=1;aspect=fixed;" vertex="1" parent="1">
          <mxGeometry x="935" y="480" width="80" height="80" as="geometry" />
        </mxCell>
        <mxCell id="lmzhbs31GOhwWtrreFL7-22" style="edgeStyle=orthogonalEdgeStyle;rounded=0;orthogonalLoop=1;jettySize=auto;html=1;entryX=1;entryY=0.5;entryDx=0;entryDy=0;exitX=0.041;exitY=0.655;exitDx=0;exitDy=0;exitPerimeter=0;" edge="1" parent="1" source="lmzhbs31GOhwWtrreFL7-18">
          <mxGeometry relative="1" as="geometry">
            <mxPoint x="1340" y="540" as="sourcePoint" />
            <mxPoint x="1015" y="540" as="targetPoint" />
            <Array as="points">
              <mxPoint x="1343" y="540" />
            </Array>
          </mxGeometry>
        </mxCell>
        <mxCell id="lmzhbs31GOhwWtrreFL7-27" value="Laporan Surat Keluar" style="edgeLabel;html=1;align=center;verticalAlign=middle;resizable=0;points=[];" vertex="1" connectable="0" parent="lmzhbs31GOhwWtrreFL7-22">
          <mxGeometry x="0.0253" relative="1" as="geometry">
            <mxPoint y="10" as="offset" />
          </mxGeometry>
        </mxCell>
        <mxCell id="lmzhbs31GOhwWtrreFL7-25" style="edgeStyle=orthogonalEdgeStyle;rounded=0;orthogonalLoop=1;jettySize=auto;html=1;entryX=1;entryY=0.5;entryDx=0;entryDy=0;exitX=0.032;exitY=0.323;exitDx=0;exitDy=0;exitPerimeter=0;" edge="1" parent="1" source="lmzhbs31GOhwWtrreFL7-18">
          <mxGeometry relative="1" as="geometry">
            <mxPoint x="1340" y="500" as="sourcePoint" />
            <mxPoint x="1015" y="500" as="targetPoint" />
          </mxGeometry>
        </mxCell>
        <mxCell id="lmzhbs31GOhwWtrreFL7-26" value="Laporan Hasil Disposisi" style="edgeLabel;html=1;align=center;verticalAlign=middle;resizable=0;points=[];" vertex="1" connectable="0" parent="lmzhbs31GOhwWtrreFL7-25">
          <mxGeometry x="-0.3216" relative="1" as="geometry">
            <mxPoint x="-10" y="-10" as="offset" />
          </mxGeometry>
        </mxCell>
        <mxCell id="lmzhbs31GOhwWtrreFL7-50" style="edgeStyle=orthogonalEdgeStyle;rounded=0;orthogonalLoop=1;jettySize=auto;html=1;entryX=1;entryY=0.75;entryDx=0;entryDy=0;" edge="1" parent="1" target="lmzhbs31GOhwWtrreFL7-49">
          <mxGeometry relative="1" as="geometry">
            <mxPoint x="1380" y="485" as="sourcePoint" />
            <mxPoint x="1005" y="-100" as="targetPoint" />
            <Array as="points">
              <mxPoint x="1380" y="-100" />
            </Array>
          </mxGeometry>
        </mxCell>
        <mxCell id="lmzhbs31GOhwWtrreFL7-51" value="Laporan Hasil Disposisi" style="edgeLabel;html=1;align=center;verticalAlign=middle;resizable=0;points=[];" vertex="1" connectable="0" parent="lmzhbs31GOhwWtrreFL7-50">
          <mxGeometry x="0.9" relative="1" as="geometry">
            <mxPoint x="25" y="10" as="offset" />
          </mxGeometry>
        </mxCell>
        <mxCell id="lmzhbs31GOhwWtrreFL7-52" style="edgeStyle=orthogonalEdgeStyle;rounded=0;orthogonalLoop=1;jettySize=auto;html=1;entryX=1;entryY=0.5;entryDx=0;entryDy=0;" edge="1" parent="1" source="lmzhbs31GOhwWtrreFL7-18" target="lmzhbs31GOhwWtrreFL7-49">
          <mxGeometry relative="1" as="geometry">
            <mxPoint x="1400" y="210" as="targetPoint" />
            <Array as="points">
              <mxPoint x="1390" y="-120" />
            </Array>
          </mxGeometry>
        </mxCell>
        <mxCell id="lmzhbs31GOhwWtrreFL7-53" value="Laporan Surat Keluar" style="edgeLabel;html=1;align=center;verticalAlign=middle;resizable=0;points=[];" vertex="1" connectable="0" parent="lmzhbs31GOhwWtrreFL7-52">
          <mxGeometry x="0.715" relative="1" as="geometry">
            <mxPoint x="41" y="7" as="offset" />
          </mxGeometry>
        </mxCell>
        <mxCell id="lmzhbs31GOhwWtrreFL7-54" style="edgeStyle=orthogonalEdgeStyle;rounded=0;orthogonalLoop=1;jettySize=auto;html=1;entryX=1;entryY=0.25;entryDx=0;entryDy=0;" edge="1" parent="1" source="lmzhbs31GOhwWtrreFL7-18" target="lmzhbs31GOhwWtrreFL7-49">
          <mxGeometry relative="1" as="geometry">
            <mxPoint x="1420" y="160" as="targetPoint" />
            <Array as="points">
              <mxPoint x="1400" y="-140" />
            </Array>
          </mxGeometry>
        </mxCell>
        <mxCell id="lmzhbs31GOhwWtrreFL7-55" value="Laporan Surat Masuk" style="edgeLabel;html=1;align=center;verticalAlign=middle;resizable=0;points=[];" vertex="1" connectable="0" parent="lmzhbs31GOhwWtrreFL7-54">
          <mxGeometry x="0.6498" y="3" relative="1" as="geometry">
            <mxPoint x="105" y="4" as="offset" />
          </mxGeometry>
        </mxCell>
        <mxCell id="lmzhbs31GOhwWtrreFL7-76" style="edgeStyle=orthogonalEdgeStyle;rounded=0;orthogonalLoop=1;jettySize=auto;html=1;entryX=0.5;entryY=1;entryDx=0;entryDy=0;" edge="1" parent="1" source="lmzhbs31GOhwWtrreFL7-18" target="lmzhbs31GOhwWtrreFL7-4">
          <mxGeometry relative="1" as="geometry">
            <Array as="points">
              <mxPoint x="1380" y="610" />
              <mxPoint x="682" y="610" />
            </Array>
          </mxGeometry>
        </mxCell>
        <mxCell id="lmzhbs31GOhwWtrreFL7-77" value=":Laporan Surat Keluar" style="edgeLabel;html=1;align=center;verticalAlign=middle;resizable=0;points=[];" vertex="1" connectable="0" parent="lmzhbs31GOhwWtrreFL7-76">
          <mxGeometry x="-0.2891" y="-1" relative="1" as="geometry">
            <mxPoint x="48" y="-8" as="offset" />
          </mxGeometry>
        </mxCell>
        <mxCell id="lmzhbs31GOhwWtrreFL7-78" style="edgeStyle=orthogonalEdgeStyle;rounded=0;orthogonalLoop=1;jettySize=auto;html=1;entryX=0.25;entryY=1;entryDx=0;entryDy=0;" edge="1" parent="1" source="lmzhbs31GOhwWtrreFL7-18" target="lmzhbs31GOhwWtrreFL7-4">
          <mxGeometry relative="1" as="geometry">
            <Array as="points">
              <mxPoint x="1400" y="630" />
              <mxPoint x="661" y="630" />
            </Array>
          </mxGeometry>
        </mxCell>
        <mxCell id="lmzhbs31GOhwWtrreFL7-79" value="Laporan Hasil Disposisi" style="edgeLabel;html=1;align=center;verticalAlign=middle;resizable=0;points=[];" vertex="1" connectable="0" parent="lmzhbs31GOhwWtrreFL7-78">
          <mxGeometry x="-0.3985" y="-1" relative="1" as="geometry">
            <mxPoint x="98" y="-9" as="offset" />
          </mxGeometry>
        </mxCell>
        <mxCell id="lmzhbs31GOhwWtrreFL7-18" value="4&lt;div&gt;&lt;br&gt;&lt;/div&gt;&lt;div&gt;Pembuatan Laporan&lt;/div&gt;" style="ellipse;whiteSpace=wrap;html=1;" vertex="1" parent="1">
          <mxGeometry x="1340" y="465" width="80" height="110" as="geometry" />
        </mxCell>
        <mxCell id="lmzhbs31GOhwWtrreFL7-33" value="" style="edgeStyle=orthogonalEdgeStyle;rounded=0;orthogonalLoop=1;jettySize=auto;html=1;" edge="1" parent="1" source="lmzhbs31GOhwWtrreFL7-29" target="lmzhbs31GOhwWtrreFL7-32">
          <mxGeometry relative="1" as="geometry" />
        </mxCell>
        <mxCell id="lmzhbs31GOhwWtrreFL7-39" value="Surat Masuk" style="edgeLabel;html=1;align=center;verticalAlign=middle;resizable=0;points=[];" vertex="1" connectable="0" parent="lmzhbs31GOhwWtrreFL7-33">
          <mxGeometry x="-0.2244" y="-1" relative="1" as="geometry">
            <mxPoint y="11" as="offset" />
          </mxGeometry>
        </mxCell>
        <mxCell id="lmzhbs31GOhwWtrreFL7-29" value="Instansi" style="whiteSpace=wrap;html=1;aspect=fixed;" vertex="1" parent="1">
          <mxGeometry x="925" y="100" width="80" height="80" as="geometry" />
        </mxCell>
        <mxCell id="lmzhbs31GOhwWtrreFL7-35" value="" style="edgeStyle=orthogonalEdgeStyle;rounded=0;orthogonalLoop=1;jettySize=auto;html=1;entryX=0;entryY=0.5;entryDx=0;entryDy=0;" edge="1" parent="1" source="lmzhbs31GOhwWtrreFL7-32" target="lmzhbs31GOhwWtrreFL7-41">
          <mxGeometry relative="1" as="geometry">
            <mxPoint x="1280" y="15" as="targetPoint" />
          </mxGeometry>
        </mxCell>
        <mxCell id="lmzhbs31GOhwWtrreFL7-40" value="Tbl_Data Surat Masuk" style="edgeLabel;html=1;align=center;verticalAlign=middle;resizable=0;points=[];" vertex="1" connectable="0" parent="lmzhbs31GOhwWtrreFL7-35">
          <mxGeometry x="0.0413" y="3" relative="1" as="geometry">
            <mxPoint x="-19" y="-6" as="offset" />
          </mxGeometry>
        </mxCell>
        <mxCell id="lmzhbs31GOhwWtrreFL7-56" style="edgeStyle=orthogonalEdgeStyle;rounded=0;orthogonalLoop=1;jettySize=auto;html=1;entryX=0;entryY=0.5;entryDx=0;entryDy=0;" edge="1" parent="1" source="lmzhbs31GOhwWtrreFL7-32" target="lmzhbs31GOhwWtrreFL7-49">
          <mxGeometry relative="1" as="geometry">
            <Array as="points">
              <mxPoint x="790" y="-120" />
            </Array>
          </mxGeometry>
        </mxCell>
        <mxCell id="lmzhbs31GOhwWtrreFL7-57" value="Disposisi Surat" style="edgeLabel;html=1;align=center;verticalAlign=middle;resizable=0;points=[];" vertex="1" connectable="0" parent="lmzhbs31GOhwWtrreFL7-56">
          <mxGeometry x="0.1119" y="-2" relative="1" as="geometry">
            <mxPoint x="20" y="8" as="offset" />
          </mxGeometry>
        </mxCell>
        <mxCell id="lmzhbs31GOhwWtrreFL7-32" value="&lt;div&gt;1&lt;/div&gt;&lt;div&gt;&lt;br&gt;&lt;/div&gt;Pendataan Surat&lt;div&gt;Masuk&lt;/div&gt;" style="ellipse;whiteSpace=wrap;html=1;" vertex="1" parent="1">
          <mxGeometry x="750" y="-40" width="80" height="110" as="geometry" />
        </mxCell>
        <mxCell id="lmzhbs31GOhwWtrreFL7-42" style="edgeStyle=orthogonalEdgeStyle;rounded=0;orthogonalLoop=1;jettySize=auto;html=1;entryX=0.39;entryY=0.017;entryDx=0;entryDy=0;entryPerimeter=0;" edge="1" parent="1" source="lmzhbs31GOhwWtrreFL7-41" target="lmzhbs31GOhwWtrreFL7-18">
          <mxGeometry relative="1" as="geometry">
            <mxPoint x="1380" y="460" as="targetPoint" />
            <Array as="points">
              <mxPoint x="1370" y="15" />
              <mxPoint x="1370" y="460" />
              <mxPoint x="1371" y="460" />
            </Array>
          </mxGeometry>
        </mxCell>
        <mxCell id="lmzhbs31GOhwWtrreFL7-43" value="Tbl_Data Surat&lt;div&gt;Masuk&lt;/div&gt;" style="edgeLabel;html=1;align=center;verticalAlign=middle;resizable=0;points=[];" vertex="1" connectable="0" parent="lmzhbs31GOhwWtrreFL7-42">
          <mxGeometry x="-0.7567" y="-1" relative="1" as="geometry">
            <mxPoint x="-8" y="-16" as="offset" />
          </mxGeometry>
        </mxCell>
        <mxCell id="lmzhbs31GOhwWtrreFL7-41" value="Tbl_Data Surat Masuk" style="shape=partialRectangle;whiteSpace=wrap;html=1;left=0;right=0;fillColor=none;" vertex="1" parent="1">
          <mxGeometry x="1150" y="-15" width="120" height="60" as="geometry" />
        </mxCell>
        <mxCell id="lmzhbs31GOhwWtrreFL7-62" style="edgeStyle=orthogonalEdgeStyle;rounded=0;orthogonalLoop=1;jettySize=auto;html=1;entryX=0.5;entryY=1;entryDx=0;entryDy=0;" edge="1" parent="1" source="lmzhbs31GOhwWtrreFL7-49" target="lmzhbs31GOhwWtrreFL7-60">
          <mxGeometry relative="1" as="geometry">
            <Array as="points">
              <mxPoint x="870" y="-130" />
            </Array>
          </mxGeometry>
        </mxCell>
        <mxCell id="lmzhbs31GOhwWtrreFL7-63" value="Dokumen Hasil&lt;div&gt;DIsposisi&lt;/div&gt;" style="edgeLabel;html=1;align=center;verticalAlign=middle;resizable=0;points=[];" vertex="1" connectable="0" parent="lmzhbs31GOhwWtrreFL7-62">
          <mxGeometry x="-0.2948" y="-3" relative="1" as="geometry">
            <mxPoint x="5" y="-17" as="offset" />
          </mxGeometry>
        </mxCell>
        <mxCell id="lmzhbs31GOhwWtrreFL7-49" value="Kepala&lt;div&gt;UPTD&lt;/div&gt;" style="whiteSpace=wrap;html=1;aspect=fixed;" vertex="1" parent="1">
          <mxGeometry x="990" y="-160" width="80" height="80" as="geometry" />
        </mxCell>
        <mxCell id="lmzhbs31GOhwWtrreFL7-69" style="edgeStyle=orthogonalEdgeStyle;rounded=0;orthogonalLoop=1;jettySize=auto;html=1;" edge="1" parent="1">
          <mxGeometry relative="1" as="geometry">
            <mxPoint x="686" y="290" as="targetPoint" />
            <mxPoint x="836" y="-235" as="sourcePoint" />
            <Array as="points">
              <mxPoint x="686" y="-235" />
            </Array>
          </mxGeometry>
        </mxCell>
        <mxCell id="lmzhbs31GOhwWtrreFL7-72" value="Dokumen Hasil Disposisi" style="edgeLabel;html=1;align=center;verticalAlign=middle;resizable=0;points=[];" vertex="1" connectable="0" parent="lmzhbs31GOhwWtrreFL7-69">
          <mxGeometry x="-0.7477" y="2" relative="1" as="geometry">
            <mxPoint x="9" y="7" as="offset" />
          </mxGeometry>
        </mxCell>
        <mxCell id="lmzhbs31GOhwWtrreFL7-60" value="&lt;div&gt;3&lt;/div&gt;&lt;div&gt;&lt;br&gt;&lt;/div&gt;Pendataan Hasil Disposisi" style="ellipse;whiteSpace=wrap;html=1;" vertex="1" parent="1">
          <mxGeometry x="830" y="-290" width="80" height="110" as="geometry" />
        </mxCell>
        <mxCell id="lmzhbs31GOhwWtrreFL7-67" style="edgeStyle=orthogonalEdgeStyle;rounded=0;orthogonalLoop=1;jettySize=auto;html=1;entryX=1;entryY=0.5;entryDx=0;entryDy=0;" edge="1" parent="1" source="lmzhbs31GOhwWtrreFL7-64" target="lmzhbs31GOhwWtrreFL7-18">
          <mxGeometry relative="1" as="geometry">
            <mxPoint x="1500" y="260" as="targetPoint" />
            <Array as="points">
              <mxPoint x="1450" y="-240" />
              <mxPoint x="1450" y="520" />
            </Array>
          </mxGeometry>
        </mxCell>
        <mxCell id="lmzhbs31GOhwWtrreFL7-68" value="Tbl_Data Hasil Disposisi" style="edgeLabel;html=1;align=center;verticalAlign=middle;resizable=0;points=[];" vertex="1" connectable="0" parent="lmzhbs31GOhwWtrreFL7-67">
          <mxGeometry x="-0.9116" y="-1" relative="1" as="geometry">
            <mxPoint x="92" y="-11" as="offset" />
          </mxGeometry>
        </mxCell>
        <mxCell id="lmzhbs31GOhwWtrreFL7-64" value="Tbl_Data Hasil Disposisi" style="shape=partialRectangle;whiteSpace=wrap;html=1;left=0;right=0;fillColor=none;" vertex="1" parent="1">
          <mxGeometry x="1040" y="-270" width="120" height="60" as="geometry" />
        </mxCell>
        <mxCell id="lmzhbs31GOhwWtrreFL7-66" style="edgeStyle=orthogonalEdgeStyle;rounded=0;orthogonalLoop=1;jettySize=auto;html=1;entryX=0.003;entryY=0.59;entryDx=0;entryDy=0;entryPerimeter=0;" edge="1" parent="1" source="lmzhbs31GOhwWtrreFL7-60" target="lmzhbs31GOhwWtrreFL7-64">
          <mxGeometry relative="1" as="geometry" />
        </mxCell>
        <mxCell id="lmzhbs31GOhwWtrreFL7-74" style="edgeStyle=orthogonalEdgeStyle;rounded=0;orthogonalLoop=1;jettySize=auto;html=1;entryX=0.75;entryY=1;entryDx=0;entryDy=0;" edge="1" parent="1" source="lmzhbs31GOhwWtrreFL7-18" target="lmzhbs31GOhwWtrreFL7-4">
          <mxGeometry relative="1" as="geometry">
            <Array as="points">
              <mxPoint x="1360" y="590" />
              <mxPoint x="703" y="590" />
            </Array>
          </mxGeometry>
        </mxCell>
        <mxCell id="lmzhbs31GOhwWtrreFL7-75" value="Laporan Surat Masuk" style="edgeLabel;html=1;align=center;verticalAlign=middle;resizable=0;points=[];" vertex="1" connectable="0" parent="lmzhbs31GOhwWtrreFL7-74">
          <mxGeometry x="-0.1792" y="-1" relative="1" as="geometry">
            <mxPoint x="-3" y="-7" as="offset" />
          </mxGeometry>
        </mxCell>
        <mxCell id="lmzhbs31GOhwWtrreFL7-83" style="edgeStyle=orthogonalEdgeStyle;rounded=0;orthogonalLoop=1;jettySize=auto;html=1;entryX=0.451;entryY=0.055;entryDx=0;entryDy=0;entryPerimeter=0;" edge="1" parent="1">
          <mxGeometry relative="1" as="geometry">
            <mxPoint x="475" y="576.6284793999944" as="sourcePoint" />
            <mxPoint x="474.1199999999999" y="660.3000000000002" as="targetPoint" />
            <Array as="points">
              <mxPoint x="475" y="617" />
              <mxPoint x="474" y="617" />
            </Array>
          </mxGeometry>
        </mxCell>
        <mxCell id="lmzhbs31GOhwWtrreFL7-85" value="Simpan / Akses&lt;div&gt;Data Login&lt;/div&gt;" style="edgeLabel;html=1;align=center;verticalAlign=middle;resizable=0;points=[];" vertex="1" connectable="0" parent="lmzhbs31GOhwWtrreFL7-83">
          <mxGeometry x="-0.1733" y="3" relative="1" as="geometry">
            <mxPoint x="-45" y="-5" as="offset" />
          </mxGeometry>
        </mxCell>
        <mxCell id="lmzhbs31GOhwWtrreFL7-81" value="&lt;div&gt;0&lt;/div&gt;&lt;div&gt;&lt;br&gt;&lt;/div&gt;Login /&amp;nbsp;&lt;div&gt;Register&lt;/div&gt;" style="ellipse;whiteSpace=wrap;html=1;" vertex="1" parent="1">
          <mxGeometry x="435" y="460" width="90" height="120" as="geometry" />
        </mxCell>
        <mxCell id="lmzhbs31GOhwWtrreFL7-87" style="edgeStyle=orthogonalEdgeStyle;rounded=0;orthogonalLoop=1;jettySize=auto;html=1;" edge="1" parent="1">
          <mxGeometry relative="1" as="geometry">
            <mxPoint x="487" y="660" as="sourcePoint" />
            <mxPoint x="487" y="580" as="targetPoint" />
          </mxGeometry>
        </mxCell>
        <mxCell id="lmzhbs31GOhwWtrreFL7-88" value="validasi" style="edgeLabel;html=1;align=center;verticalAlign=middle;resizable=0;points=[];" vertex="1" connectable="0" parent="lmzhbs31GOhwWtrreFL7-87">
          <mxGeometry x="0.1523" relative="1" as="geometry">
            <mxPoint x="21" as="offset" />
          </mxGeometry>
        </mxCell>
        <mxCell id="lmzhbs31GOhwWtrreFL7-82" value="Tbl_login" style="shape=partialRectangle;whiteSpace=wrap;html=1;left=0;right=0;fillColor=none;" vertex="1" parent="1">
          <mxGeometry x="420" y="660" width="120" height="60" as="geometry" />
        </mxCell>
        <mxCell id="lmzhbs31GOhwWtrreFL7-90" style="edgeStyle=orthogonalEdgeStyle;rounded=0;orthogonalLoop=1;jettySize=auto;html=1;entryX=0.329;entryY=0.025;entryDx=0;entryDy=0;entryPerimeter=0;" edge="1" parent="1">
          <mxGeometry relative="1" as="geometry">
            <mxPoint x="470" y="370" as="sourcePoint" />
            <mxPoint x="469.6099999999999" y="463" as="targetPoint" />
            <Array as="points" />
          </mxGeometry>
        </mxCell>
        <mxCell id="lmzhbs31GOhwWtrreFL7-91" value="Input Data&lt;div&gt;(Username/Password)&lt;/div&gt;" style="edgeLabel;html=1;align=center;verticalAlign=middle;resizable=0;points=[];" vertex="1" connectable="0" parent="lmzhbs31GOhwWtrreFL7-90">
          <mxGeometry x="-0.2021" y="2" relative="1" as="geometry">
            <mxPoint x="-63" as="offset" />
          </mxGeometry>
        </mxCell>
        <mxCell id="lmzhbs31GOhwWtrreFL7-89" value="USER (Admin, Staf, Kepala UPTD, Kepala Bagian)" style="whiteSpace=wrap;html=1;aspect=fixed;" vertex="1" parent="1">
          <mxGeometry x="435" y="290" width="84" height="80" as="geometry" />
        </mxCell>
        <mxCell id="lmzhbs31GOhwWtrreFL7-94" style="edgeStyle=orthogonalEdgeStyle;rounded=0;orthogonalLoop=1;jettySize=auto;html=1;entryX=0.603;entryY=0.973;entryDx=0;entryDy=0;entryPerimeter=0;" edge="1" parent="1">
          <mxGeometry relative="1" as="geometry">
            <mxPoint x="492.03030303030323" y="462.3760517700284" as="sourcePoint" />
            <mxPoint x="492.65200000000004" y="369.84000000000015" as="targetPoint" />
            <Array as="points">
              <mxPoint x="492" y="417" />
              <mxPoint x="493" y="417" />
            </Array>
          </mxGeometry>
        </mxCell>
        <mxCell id="lmzhbs31GOhwWtrreFL7-95" value="Akses Sistem" style="edgeLabel;html=1;align=center;verticalAlign=middle;resizable=0;points=[];" vertex="1" connectable="0" parent="lmzhbs31GOhwWtrreFL7-94">
          <mxGeometry x="0.066" y="-1" relative="1" as="geometry">
            <mxPoint x="32" y="-1" as="offset" />
          </mxGeometry>
        </mxCell>
      </root>
    </mxGraphModel>
  </diagram>
</mxfile>
